<?xml version="1.0" encoding="UTF-8" standalone="no"?>
<svg
   xmlns:dc="http://purl.org/dc/elements/1.1/"
   xmlns:cc="http://creativecommons.org/ns#"
   xmlns:rdf="http://www.w3.org/1999/02/22-rdf-syntax-ns#"
   xmlns:svg="http://www.w3.org/2000/svg"
   xmlns="http://www.w3.org/2000/svg"
   xmlns:sodipodi="http://sodipodi.sourceforge.net/DTD/sodipodi-0.dtd"
   xmlns:inkscape="http://www.inkscape.org/namespaces/inkscape"
   version="1.1"
   id="Capa_1"
   x="0px"
   y="0px"
   viewBox="0 0 400.76661 480.8"
   xml:space="preserve"
   sodipodi:docname="lightbulbon.svg"
   width="400.7666"
   height="480.79999"
   inkscape:version="1.0.2 (e86c8708, 2021-01-15)"><metadata
   id="metadata360"><rdf:RDF><cc:Work
       rdf:about=""><dc:format>image/svg+xml</dc:format><dc:type
         rdf:resource="http://purl.org/dc/dcmitype/StillImage" /><dc:title></dc:title></cc:Work></rdf:RDF></metadata><defs
   id="defs358" /><sodipodi:namedview
   pagecolor="#ffffff"
   bordercolor="#666666"
   borderopacity="1"
   objecttolerance="10"
   gridtolerance="10"
   guidetolerance="10"
   inkscape:pageopacity="0"
   inkscape:pageshadow="2"
   inkscape:window-width="697"
   inkscape:window-height="480"
   id="namedview356"
   showgrid="false"
   fit-margin-top="0"
   fit-margin-left="0"
   fit-margin-right="0"
   fit-margin-bottom="0"
   inkscape:zoom="1.5287022"
   inkscape:cx="200.38334"
   inkscape:cy="240.39999"
   inkscape:window-x="0"
   inkscape:window-y="25"
   inkscape:window-maximized="0"
   inkscape:current-layer="Capa_1" />
<path
   style="fill:#ffd517"
   d="m 277.09534,314.4 c -22.4,22.4 -19.6,67.6 -19.6,67.6 h -113.6 c 0,0 2.4,-45.2 -19.6,-67.6 -24.399998,-21.6 -39.999998,-52.8 -39.999998,-87.6 0,-64 51.999998,-116 115.999998,-116 64,0 116,52 116,116 0,34.8 -15.2,66 -39.2,87.6 z"
   id="path297" />
<g
   id="g303"
   transform="translate(-40.016658)">
	<path
   style="fill:#e5e5e5"
   d="m 300.712,417.6 c 0,6 -4.8,10.8 -10.8,10.8 h -98.8 c -6,0 -10.8,-4.8 -10.8,-10.8 v 0 c 0,-6 4.8,-10.8 10.8,-10.8 h 98.4 c 6,0 11.2,4.8 11.2,10.8 z"
   id="path299" />
	<path
   style="fill:#e5e5e5"
   d="m 285.912,462.4 c 0,6 -4.8,10.8 -10.8,10.8 h -69.2 c -6,0 -10.8,-4.8 -10.8,-10.8 v 0 c 0,-6 4.8,-10.8 10.8,-10.8 h 69.2 c 6,0 10.8,4.8 10.8,10.8 z"
   id="path301" />
</g>
<g
   id="g323"
   transform="translate(-40.016658)">
	<path
   style="fill:#210b20"
   d="m 323.112,318.4 c 26,-23.6 40.8,-56.8 40.8,-91.6 0,-68 -55.6,-123.6 -123.6,-123.6 -68,0 -123.6,55.6 -123.6,123.6 0,35.6 15.6,69.6 42,92.8 19.6,19.6 17.6,61.2 17.6,61.6 0,2 0.8,4 2,5.6 1.6,1.6 3.6,2.4 5.6,2.4 h 113.2 c 2,0 4,-0.8 5.6,-2.4 1.6,-1.6 2,-3.6 2,-5.6 0,-0.4 -2,-42 17.6,-61.6 0.4,-0.4 0.8,-0.8 0.8,-1.2 z m -11.2,-10 c -0.8,0.4 -1.2,1.2 -1.6,2 -17.6,18.8 -20.4,49.6 -20.8,64 h -98 c -0.4,-14.8 -3.6,-46.8 -22.4,-65.6 -23.6,-20.8 -37.2,-50.4 -37.2,-81.6 0,-60 48.8,-108.4 108.4,-108.4 60,0 108.4,48.8 108.4,108.4 0,30.8 -13.2,60.8 -36.8,81.2 z"
   id="path305" />
	<path
   style="fill:#210b20"
   d="m 240.312,135.2 c -4,0 -7.6,3.2 -7.6,7.6 0,4 3.2,7.6 7.6,7.6 44.8,0 81.2,36.4 81.2,81.2 0,4 3.2,7.6 7.6,7.6 4,0 7.6,-3.2 7.6,-7.6 0,-53.2 -43.2,-96.4 -96.4,-96.4 z"
   id="path307" />
	<path
   style="fill:#210b20"
   d="m 308.312,417.6 c 0,-10.4 -8.4,-18.4 -18.4,-18.4 h -98.8 c -10.4,0 -18.4,8.4 -18.4,18.4 0,10.4 8.4,18.4 18.4,18.4 h 98.4 c 10.4,0 18.8,-8 18.8,-18.4 z m -18.8,3.2 h -98.4 c -2,0 -3.2,-1.6 -3.2,-3.2 0,-2 1.6,-3.2 3.2,-3.2 h 98.4 c 2,0 3.2,1.6 3.2,3.2 0.4,2 -1.2,3.2 -3.2,3.2 z"
   id="path309" />
	<path
   style="fill:#210b20"
   d="m 275.112,444 h -69.2 c -10.4,0 -18.4,8.4 -18.4,18.4 0,10.4 8.4,18.4 18.4,18.4 h 69.2 c 10.4,0 18.4,-8.4 18.4,-18.4 0,-10 -8.4,-18.4 -18.4,-18.4 z m 0,21.6 h -69.2 c -2,0 -3.2,-1.6 -3.2,-3.2 0,-2 1.6,-3.2 3.2,-3.2 h 69.2 c 2,0 3.2,1.6 3.2,3.2 0,2 -1.2,3.2 -3.2,3.2 z"
   id="path311" />
	<path
   style="fill:#210b20"
   d="M 247.912,58.8 V 7.6 c 0,-4 -3.2,-7.6 -7.6,-7.6 -4,0 -7.6,3.2 -7.6,7.6 v 51.6 c 0,4 3.2,7.6 7.6,7.6 4.4,-0.4 7.6,-3.6 7.6,-8 z"
   id="path313" />
	<path
   style="fill:#210b20"
   d="m 366.312,38 c -3.6,-2.4 -8,-1.2 -10.4,2 l -28.4,42.8 c -2.4,3.6 -1.2,8 2,10.4 1.2,0.8 2.8,1.2 4,1.2 2.4,0 4.8,-1.2 6.4,-3.2 l 28.4,-42.8 c 2.4,-3.2 1.2,-8 -2,-10.4 z"
   id="path315" />
	<path
   style="fill:#210b20"
   d="m 149.912,92.8 c 1.2,0 2.8,-0.4 4,-1.2 3.6,-2.4 4.4,-6.8 2.4,-10.4 L 128.712,38 c -2.4,-3.6 -6.8,-4.4 -10.4,-2.4 -3.6,2.4 -4.4,6.8 -2.4,10.4 l 27.6,43.2 c 1.6,2.4 4,3.6 6.4,3.6 z"
   id="path317" />
	<path
   style="fill:#210b20"
   d="m 43.912,128.8 45.2,24.4 c 1.2,0.8 2.4,0.8 3.6,0.8 2.8,0 5.2,-1.6 6.8,-4 2,-3.6 0.8,-8.4 -3.2,-10.4 l -45.2,-24.4 c -3.6,-2 -8.4,-0.8 -10.4,3.2 -1.6,4 -0.4,8.4 3.2,10.4 z"
   id="path319" />
	<path
   style="fill:#210b20"
   d="m 387.912,154.4 c 1.2,0 2.4,-0.4 3.6,-0.8 l 45.2,-24.4 c 3.6,-2 5.2,-6.4 3.2,-10.4 -2,-3.6 -6.4,-5.2 -10.4,-3.2 l -45.2,24.4 c -3.6,2 -5.2,6.4 -3.2,10.4 1.2,2.4 4,4 6.8,4 z"
   id="path321" />
</g>
<g
   id="g325"
   transform="translate(-40.016658)">
</g>
<g
   id="g327"
   transform="translate(-40.016658)">
</g>
<g
   id="g329"
   transform="translate(-40.016658)">
</g>
<g
   id="g331"
   transform="translate(-40.016658)">
</g>
<g
   id="g333"
   transform="translate(-40.016658)">
</g>
<g
   id="g335"
   transform="translate(-40.016658)">
</g>
<g
   id="g337"
   transform="translate(-40.016658)">
</g>
<g
   id="g339"
   transform="translate(-40.016658)">
</g>
<g
   id="g341"
   transform="translate(-40.016658)">
</g>
<g
   id="g343"
   transform="translate(-40.016658)">
</g>
<g
   id="g345"
   transform="translate(-40.016658)">
</g>
<g
   id="g347"
   transform="translate(-40.016658)">
</g>
<g
   id="g349"
   transform="translate(-40.016658)">
</g>
<g
   id="g351"
   transform="translate(-40.016658)">
</g>
<g
   id="g353"
   transform="translate(-40.016658)">
</g>
</svg>
