<?xml version="1.0" encoding="UTF-8" standalone="no"?>
<svg
   xmlns:dc="http://purl.org/dc/elements/1.1/"
   xmlns:cc="http://creativecommons.org/ns#"
   xmlns:rdf="http://www.w3.org/1999/02/22-rdf-syntax-ns#"
   xmlns:svg="http://www.w3.org/2000/svg"
   xmlns="http://www.w3.org/2000/svg"
   xmlns:sodipodi="http://sodipodi.sourceforge.net/DTD/sodipodi-0.dtd"
   xmlns:inkscape="http://www.inkscape.org/namespaces/inkscape"
   version="1.1"
   id="Capa_1"
   x="0px"
   y="0px"
   width="47.001251"
   height="47.00275"
   viewBox="0 0 47.001252 47.002751"
   xml:space="preserve"
   sodipodi:docname="lightbulbunenable.svg"
   inkscape:version="1.0.2 (e86c8708, 2021-01-15)"><metadata
   id="metadata262"><rdf:RDF><cc:Work
       rdf:about=""><dc:format>image/svg+xml</dc:format><dc:type
         rdf:resource="http://purl.org/dc/dcmitype/StillImage" /><dc:title></dc:title></cc:Work></rdf:RDF></metadata><defs
   id="defs260" /><sodipodi:namedview
   pagecolor="#ffffff"
   bordercolor="#666666"
   borderopacity="1"
   objecttolerance="10"
   gridtolerance="10"
   guidetolerance="10"
   inkscape:pageopacity="0"
   inkscape:pageshadow="2"
   inkscape:window-width="709"
   inkscape:window-height="480"
   id="namedview258"
   showgrid="false"
   fit-margin-top="0"
   fit-margin-left="0"
   fit-margin-right="0"
   fit-margin-bottom="0"
   inkscape:zoom="15.637633"
   inkscape:cx="23.499749"
   inkscape:cy="23.500749"
   inkscape:window-x="0"
   inkscape:window-y="25"
   inkscape:window-maximized="0"
   inkscape:current-layer="Capa_1" />
<g
   id="g225"
   transform="translate(-0.00125,-2.5e-4)">
	<path
   d="m 46.27,0.733 c -0.977,-0.977 -2.559,-0.977 -3.535,0 l -6.232,6.233 c -2.694,-4.174 -7.501,-6.965 -13,-6.965 -8.441,0 -15.287,6.556 -15.287,14.644 0,7.708 4.291,10.809 5.987,14.621 L 0.734,42.733 c -0.977,0.978 -0.977,2.56 0,3.535 0.489,0.489 1.128,0.733 1.768,0.733 0.64,0 1.279,-0.244 1.768,-0.732 l 11.651,-11.65 c 0.431,0.47 0.974,0.902 1.607,1.279 -0.333,0.275 -0.517,0.578 -0.517,0.896 0,0.426 0.335,0.823 0.908,1.164 -0.539,0.335 -0.852,0.721 -0.852,1.133 0,0.415 0.32,0.804 0.872,1.141 -0.563,0.339 -0.892,0.732 -0.892,1.152 0,0.512 0.484,0.983 1.293,1.365 -0.314,0.285 -0.493,0.599 -0.493,0.93 0,0.979 1.524,1.812 3.669,2.142 0.375,0.698 1.14,1.182 2.031,1.182 0.889,0 1.652,-0.48 2.03,-1.176 2.161,-0.327 3.703,-1.163 3.703,-2.146 0,-0.326 -0.173,-0.637 -0.479,-0.918 0.825,-0.384 1.32,-0.859 1.32,-1.377 0,-0.416 -0.321,-0.806 -0.874,-1.143 0.562,-0.339 0.891,-0.73 0.891,-1.15 0,-0.426 -0.335,-0.823 -0.909,-1.165 0.54,-0.334 0.854,-0.72 0.854,-1.132 0,-0.329 -0.2,-0.642 -0.557,-0.924 1.562,-0.943 2.6,-2.215 2.6,-3.584 0,-5.591 6.663,-8.037 6.663,-17.643 0,-0.901 -0.099,-1.779 -0.261,-2.636 l 7.74,-7.74 C 47.247,3.292 47.247,1.71 46.27,0.733 Z M 15.523,23.706 C 13.822,21.212 12.214,18.858 12.214,14.644 12.215,8.776 17.278,4.001 23.502,4.001 c 4.409,0 8.224,2.401 10.082,5.884 L 17.176,26.292 c -0.52,-0.92 -1.098,-1.773 -1.653,-2.586 z m 15.961,0.002 c -1.524,2.236 -3.247,4.763 -3.354,8.238 -0.521,0.584 -2.39,1.533 -4.625,1.533 -2.235,0 -4.104,-0.949 -4.625,-1.533 -0.003,-0.092 -0.019,-0.175 -0.023,-0.266 L 34.733,15.804 c -0.268,3.499 -1.714,5.652 -3.249,7.904 z"
   id="path223" />
</g>
<g
   id="g227"
   transform="translate(-0.00125,-2.5e-4)">
</g>
<g
   id="g229"
   transform="translate(-0.00125,-2.5e-4)">
</g>
<g
   id="g231"
   transform="translate(-0.00125,-2.5e-4)">
</g>
<g
   id="g233"
   transform="translate(-0.00125,-2.5e-4)">
</g>
<g
   id="g235"
   transform="translate(-0.00125,-2.5e-4)">
</g>
<g
   id="g237"
   transform="translate(-0.00125,-2.5e-4)">
</g>
<g
   id="g239"
   transform="translate(-0.00125,-2.5e-4)">
</g>
<g
   id="g241"
   transform="translate(-0.00125,-2.5e-4)">
</g>
<g
   id="g243"
   transform="translate(-0.00125,-2.5e-4)">
</g>
<g
   id="g245"
   transform="translate(-0.00125,-2.5e-4)">
</g>
<g
   id="g247"
   transform="translate(-0.00125,-2.5e-4)">
</g>
<g
   id="g249"
   transform="translate(-0.00125,-2.5e-4)">
</g>
<g
   id="g251"
   transform="translate(-0.00125,-2.5e-4)">
</g>
<g
   id="g253"
   transform="translate(-0.00125,-2.5e-4)">
</g>
<g
   id="g255"
   transform="translate(-0.00125,-2.5e-4)">
</g>
</svg>
