<?xml version="1.0" encoding="UTF-8" standalone="no"?>
<svg
   xmlns:dc="http://purl.org/dc/elements/1.1/"
   xmlns:cc="http://creativecommons.org/ns#"
   xmlns:rdf="http://www.w3.org/1999/02/22-rdf-syntax-ns#"
   xmlns:svg="http://www.w3.org/2000/svg"
   xmlns="http://www.w3.org/2000/svg"
   xmlns:sodipodi="http://sodipodi.sourceforge.net/DTD/sodipodi-0.dtd"
   xmlns:inkscape="http://www.inkscape.org/namespaces/inkscape"
   version="1.1"
   id="Capa_1"
   x="0px"
   y="0px"
   viewBox="0 0 360.46909 432.4"
   xml:space="preserve"
   sodipodi:docname="lightbulboff.svg"
   width="360.46909"
   height="432.39999"
   inkscape:version="1.0.2 (e86c8708, 2021-01-15)"><metadata
   id="metadata181"><rdf:RDF><cc:Work
       rdf:about=""><dc:format>image/svg+xml</dc:format><dc:type
         rdf:resource="http://purl.org/dc/dcmitype/StillImage" /><dc:title></dc:title></cc:Work></rdf:RDF></metadata><defs
   id="defs179" /><sodipodi:namedview
   pagecolor="#ffffff"
   bordercolor="#666666"
   borderopacity="1"
   objecttolerance="10"
   gridtolerance="10"
   guidetolerance="10"
   inkscape:pageopacity="0"
   inkscape:pageshadow="2"
   inkscape:window-width="709"
   inkscape:window-height="480"
   id="namedview177"
   showgrid="false"
   fit-margin-top="0"
   fit-margin-left="0"
   fit-margin-right="0"
   fit-margin-bottom="0"
   inkscape:zoom="1.699815"
   inkscape:cx="180.23447"
   inkscape:cy="216.2"
   inkscape:window-x="0"
   inkscape:window-y="25"
   inkscape:window-maximized="0"
   inkscape:current-layer="Capa_1" />
<g
   id="g144"
   transform="translate(-35.965532)">
	<g
   id="g142">
		<g
   id="g140">
			<path
   style="fill:#231f20"
   d="m 216.529,93.2 c -61.2,0 -111.2,50 -111.2,111.2 0,32 14,62.8 37.6,83.6 17.6,17.6 16,55.2 15.6,55.6 0,2 0.4,3.6 2,5.2 1.2,1.2 3.2,2 4.8,2 h 102 c 2,0 3.6,-0.8 4.8,-2 1.2,-1.2 2,-3.2 2,-5.2 0,-0.4 -2,-38 15.6,-55.6 0.4,-0.4 0.8,-0.8 1.2,-1.2 23.2,-21.2 36.8,-51.2 36.8,-82.4 0,-61.2 -50,-111.2 -111.2,-111.2 z m 64,184.4 c -0.4,0.4 -1.2,1.2 -1.2,1.6 -15.6,16.8 -18.4,44.4 -18.8,57.6 h -88.4 c -0.4,-13.2 -3.2,-42 -20,-59.2 -21.2,-18.4 -33.6,-45.2 -33.6,-73.6 0,-54 43.6,-97.6 97.6,-97.6 54,0 97.6,43.6 97.6,97.6 0,28.4 -12,55.2 -33.2,73.6 z"
   id="path122" />
			<path
   style="fill:#231f20"
   d="m 216.129,121.6 c -3.6,0 -6.8,3.2 -6.8,6.8 0,3.6 3.2,6.8 6.8,6.8 40.4,0 72.8,32.8 72.8,72.8 0,3.6 3.2,6.8 6.8,6.8 3.6,0 6.8,-3.2 6.8,-6.8 0.4,-47.6 -38.4,-86.4 -86.4,-86.4 z"
   id="path124" />
			<path
   style="fill:#231f20"
   d="m 260.529,358.4 h -88.8 c -9.2,0 -16.8,7.6 -16.8,16.8 0,9.2 7.6,16.8 16.8,16.8 h 88.4 c 9.6,-0.4 17.2,-7.6 17.2,-16.8 0,-9.2 -7.6,-16.8 -16.8,-16.8 z m 0,19.6 h -88.8 c -1.6,0 -3.2,-1.2 -3.2,-3.2 0,-2 1.2,-3.2 3.2,-3.2 h 88.4 c 1.6,0 3.2,1.2 3.2,3.2 0,2 -1.2,3.2 -2.8,3.2 z"
   id="path126" />
			<path
   style="fill:#231f20"
   d="m 247.329,398.8 h -62.4 c -9.2,0 -16.8,7.6 -16.8,16.8 0,9.2 7.6,16.8 16.8,16.8 h 62.4 c 9.2,0 16.8,-7.6 16.8,-16.8 0,-9.6 -7.6,-16.8 -16.8,-16.8 z m 0,19.6 h -62.4 c -1.6,0 -3.2,-1.2 -3.2,-3.2 0,-2 1.2,-3.2 3.2,-3.2 h 62.4 c 1.6,0 3.2,1.2 3.2,3.2 0,2 -1.6,3.2 -3.2,3.2 z"
   id="path128" />
			<path
   style="fill:#231f20"
   d="m 216.129,60 c 4,0 6.8,-3.2 6.8,-6.8 V 6.8 c 0,-3.6 -3.2,-6.8 -6.8,-6.8 -3.6,0 -6.8,3.2 -6.8,6.8 v 46.4 c 0,3.6 3.2,6.8 6.8,6.8 z"
   id="path130" />
			<path
   style="fill:#231f20"
   d="m 329.329,34.4 c -3.2,-2.4 -7.2,-1.2 -9.2,1.6 l -25.6,38.4 c -2.4,3.2 -1.6,7.6 1.6,9.6 1.2,0.8 2.4,1.2 3.6,1.2 2.4,0 4.4,-1.2 5.6,-3.2 l 25.6,-38.4 c 2.4,-2.8 1.6,-7.2 -1.6,-9.2 z"
   id="path132" />
			<path
   style="fill:#231f20"
   d="m 134.929,83.6 c 1.2,0 2.4,-0.4 3.6,-1.2 3.2,-2 4,-6.4 2,-9.6 L 115.729,34 c -2,-3.2 -6.4,-4 -9.6,-2 -3.2,2 -4,6.4 -2,9.6 l 24.8,38.8 c 1.6,2.4 3.6,3.2 6,3.2 z"
   id="path134" />
			<path
   style="fill:#231f20"
   d="m 86.529,126 -40.4,-22 c -3.2,-1.6 -7.6,-0.4 -9.2,2.8 -2,3.2 -0.8,7.6 2.8,9.2 l 40.4,22 c 1.2,0.4 2,0.8 3.2,0.8 2.4,0 4.8,-1.2 6,-3.6 1.6,-3.2 0.4,-7.6 -2.8,-9.2 z"
   id="path136" />
			<path
   style="fill:#231f20"
   d="m 395.729,106.8 c -1.6,-3.2 -6,-4.4 -9.2,-2.8 l -40.8,22 c -3.2,1.6 -4.4,6 -2.8,9.2 1.2,2.4 3.6,3.6 6,3.6 1.2,0 2.4,-0.4 3.2,-0.8 l 40.8,-22 c 3.2,-1.6 4.4,-6 2.8,-9.2 z"
   id="path138" />
		</g>
	</g>
</g>
<g
   id="g146"
   transform="translate(-35.965532)">
</g>
<g
   id="g148"
   transform="translate(-35.965532)">
</g>
<g
   id="g150"
   transform="translate(-35.965532)">
</g>
<g
   id="g152"
   transform="translate(-35.965532)">
</g>
<g
   id="g154"
   transform="translate(-35.965532)">
</g>
<g
   id="g156"
   transform="translate(-35.965532)">
</g>
<g
   id="g158"
   transform="translate(-35.965532)">
</g>
<g
   id="g160"
   transform="translate(-35.965532)">
</g>
<g
   id="g162"
   transform="translate(-35.965532)">
</g>
<g
   id="g164"
   transform="translate(-35.965532)">
</g>
<g
   id="g166"
   transform="translate(-35.965532)">
</g>
<g
   id="g168"
   transform="translate(-35.965532)">
</g>
<g
   id="g170"
   transform="translate(-35.965532)">
</g>
<g
   id="g172"
   transform="translate(-35.965532)">
</g>
<g
   id="g174"
   transform="translate(-35.965532)">
</g>
</svg>
