<?xml version="1.0" encoding="UTF-8" standalone="no"?>
<svg
   xmlns:dc="http://purl.org/dc/elements/1.1/"
   xmlns:cc="http://creativecommons.org/ns#"
   xmlns:rdf="http://www.w3.org/1999/02/22-rdf-syntax-ns#"
   xmlns:svg="http://www.w3.org/2000/svg"
   xmlns="http://www.w3.org/2000/svg"
   xmlns:sodipodi="http://sodipodi.sourceforge.net/DTD/sodipodi-0.dtd"
   xmlns:inkscape="http://www.inkscape.org/namespaces/inkscape"
   id="Capa_1"
   enable-background="new 0 0 512 512"
   height="462"
   viewBox="0 0 512 462"
   width="512"
   version="1.1"
   sodipodi:docname="keyboard_off.svg"
   inkscape:version="1.0.2 (e86c8708, 2021-01-15)">
  <metadata
     id="metadata145">
    <rdf:RDF>
      <cc:Work
         rdf:about="">
        <dc:format>image/svg+xml</dc:format>
        <dc:type
           rdf:resource="http://purl.org/dc/dcmitype/StillImage" />
        <dc:title></dc:title>
      </cc:Work>
    </rdf:RDF>
  </metadata>
  <defs
     id="defs143" />
  <sodipodi:namedview
     pagecolor="#ffffff"
     bordercolor="#666666"
     borderopacity="1"
     objecttolerance="10"
     gridtolerance="10"
     guidetolerance="10"
     inkscape:pageopacity="0"
     inkscape:pageshadow="2"
     inkscape:window-width="1920"
     inkscape:window-height="1103"
     id="namedview141"
     showgrid="false"
     fit-margin-top="0"
     fit-margin-left="0"
     fit-margin-right="0"
     fit-margin-bottom="0"
     inkscape:zoom="1.4355469"
     inkscape:cx="256"
     inkscape:cy="231"
     inkscape:window-x="0"
     inkscape:window-y="25"
     inkscape:window-maximized="1"
     inkscape:current-layer="Capa_1" />
  <g
     id="g138"
     transform="translate(0,-25)">
    <path
       d="M 482,201 H 300.268 C 317.865,182.888 335,156.009 335,120 335,84.555 343.214,73.438 350.371,67.713 361.361,58.921 381.602,55 416,55 c 8.284,0 15,-6.716 15,-15 0,-8.284 -6.716,-15 -15,-15 -42.803,0 -67.247,5.588 -84.371,19.287 C 308.027,63.169 305,94.668 305,120 c 0,46.583 -41.523,74.289 -52.895,81 H 30 C 13.458,201 0,214.458 0,231 v 226 c 0,16.542 13.458,30 30,30 h 452 c 16.542,0 30,-13.458 30,-30 V 231 c 0,-16.542 -13.458,-30 -30,-30 z m 0,256 H 30 V 231 h 452 c 0.019,231.146 0.1,226 0,226 z"
       id="path112" />
    <path
       d="M 96,393 H 80 c -8.284,0 -15,6.716 -15,15 0,8.284 6.716,15 15,15 h 16 c 8.284,0 15,-6.716 15,-15 0,-8.284 -6.716,-15 -15,-15 z"
       id="path114" />
    <path
       d="m 151,344 c 0,-8.284 -6.716,-15 -15,-15 h -16 c -8.284,0 -15,6.716 -15,15 0,8.284 6.716,15 15,15 h 16 c 8.284,0 15,-6.716 15,-15 z"
       id="path116" />
    <path
       d="m 185,344 c 0,8.284 6.716,15 15,15 h 16 c 8.284,0 15,-6.716 15,-15 0,-8.284 -6.716,-15 -15,-15 h -16 c -8.284,0 -15,6.716 -15,15 z"
       id="path118" />
    <path
       d="m 265,344 c 0,8.284 6.716,15 15,15 h 16 c 8.284,0 15,-6.716 15,-15 0,-8.284 -6.716,-15 -15,-15 h -16 c -8.284,0 -15,6.716 -15,15 z"
       id="path120" />
    <path
       d="m 376,329 h -16 c -8.284,0 -15,6.716 -15,15 0,8.284 6.716,15 15,15 h 16 c 8.284,0 15,-6.716 15,-15 0,-8.284 -6.716,-15 -15,-15 z"
       id="path122" />
    <path
       d="m 431,280 c 0,-8.284 -6.716,-15 -15,-15 h -16 c -8.284,0 -15,6.716 -15,15 0,8.284 6.716,15 15,15 h 16 c 8.284,0 15,-6.716 15,-15 z"
       id="path124" />
    <path
       d="m 320,295 h 16 c 8.284,0 15,-6.716 15,-15 0,-8.284 -6.716,-15 -15,-15 h -16 c -8.284,0 -15,6.716 -15,15 0,8.284 6.716,15 15,15 z"
       id="path126" />
    <path
       d="m 240,295 h 16 c 8.284,0 15,-6.716 15,-15 0,-8.284 -6.716,-15 -15,-15 h -16 c -8.284,0 -15,6.716 -15,15 0,8.284 6.716,15 15,15 z"
       id="path128" />
    <path
       d="m 160,295 h 16 c 8.284,0 15,-6.716 15,-15 0,-8.284 -6.716,-15 -15,-15 h -16 c -8.284,0 -15,6.716 -15,15 0,8.284 6.716,15 15,15 z"
       id="path130" />
    <path
       d="m 80,295 h 16 c 8.284,0 15,-6.716 15,-15 0,-8.284 -6.716,-15 -15,-15 H 80 c -8.284,0 -15,6.716 -15,15 0,8.284 6.716,15 15,15 z"
       id="path132" />
    <path
       d="m 432,393 h -16 c -8.284,0 -15,6.716 -15,15 0,8.284 6.716,15 15,15 h 16 c 8.284,0 15,-6.716 15,-15 0,-8.284 -6.716,-15 -15,-15 z"
       id="path134" />
    <path
       d="M 352,393 H 160 c -8.284,0 -15,6.716 -15,15 0,8.284 6.716,15 15,15 h 192 c 8.284,0 15,-6.716 15,-15 0,-8.284 -6.716,-15 -15,-15 z"
       id="path136" />
  </g>
</svg>
