<?xml version="1.0" encoding="UTF-8" standalone="no"?>
<svg
   xmlns:dc="http://purl.org/dc/elements/1.1/"
   xmlns:cc="http://creativecommons.org/ns#"
   xmlns:rdf="http://www.w3.org/1999/02/22-rdf-syntax-ns#"
   xmlns:svg="http://www.w3.org/2000/svg"
   xmlns="http://www.w3.org/2000/svg"
   xmlns:sodipodi="http://sodipodi.sourceforge.net/DTD/sodipodi-0.dtd"
   xmlns:inkscape="http://www.inkscape.org/namespaces/inkscape"
   id="Capa_1"
   enable-background="new 0 0 512 512"
   height="462"
   viewBox="0 0 512 462"
   width="512"
   version="1.1"
   sodipodi:docname="keyboard_on.svg"
   inkscape:version="1.0.2 (e86c8708, 2021-01-15)">
  <metadata
     id="metadata190">
    <rdf:RDF>
      <cc:Work
         rdf:about="">
        <dc:format>image/svg+xml</dc:format>
        <dc:type
           rdf:resource="http://purl.org/dc/dcmitype/StillImage" />
        <dc:title></dc:title>
      </cc:Work>
    </rdf:RDF>
  </metadata>
  <defs
     id="defs188" />
  <sodipodi:namedview
     pagecolor="#ffffff"
     bordercolor="#666666"
     borderopacity="1"
     objecttolerance="10"
     gridtolerance="10"
     guidetolerance="10"
     inkscape:pageopacity="0"
     inkscape:pageshadow="2"
     inkscape:window-width="1920"
     inkscape:window-height="1103"
     id="namedview186"
     showgrid="false"
     fit-margin-top="0"
     fit-margin-left="0"
     fit-margin-right="0"
     fit-margin-bottom="0"
     inkscape:zoom="1.4355469"
     inkscape:cx="256"
     inkscape:cy="231"
     inkscape:window-x="0"
     inkscape:window-y="25"
     inkscape:window-maximized="1"
     inkscape:current-layer="Capa_1" />
  <g
     id="g183"
     transform="translate(0,-25)">
    <path
       d="m 242.583,222.708 c -3.699,-7.398 -0.711,-16.391 6.672,-20.106 C 249.972,202.236 305,173.621 305,120 305,94.668 308.027,63.169 331.629,44.287 348.753,30.588 373.197,25 416,25 c 8.284,0 15,6.716 15,15 0,8.284 -6.716,15 -15,15 -34.398,0 -54.639,3.921 -65.629,12.713 C 343.214,73.438 335,84.555 335,120 c 0,72.438 -69.34,107.94 -72.292,109.417 -7.41,3.705 -16.42,0.7 -20.125,-6.709 z"
       fill="#313a6b"
       id="path147" />
    <path
       d="m 512,231 v 226 c 0,16.54 -13.46,30 -30,30 H 30 C 13.46,487 0,473.54 0,457 V 231 c 0,-16.54 13.46,-30 30,-30 h 452 c 16.54,0 30,13.46 30,30 z"
       fill="#667197"
       id="path149" />
    <path
       d="m 512,231 v 226 c 0,16.54 -13.46,30 -30,30 H 256 V 201 h 226 c 16.54,0 30,13.46 30,30 z"
       fill="#4d5788"
       id="path151" />
    <path
       d="M 96,423 H 80 c -8.284,0 -15,-6.716 -15,-15 0,-8.284 6.716,-15 15,-15 h 16 c 8.284,0 15,6.716 15,15 0,8.284 -6.716,15 -15,15 z"
       fill="#f1f6ff"
       id="path153" />
    <path
       d="m 136,359 h -16 c -8.284,0 -15,-6.716 -15,-15 0,-8.284 6.716,-15 15,-15 h 16 c 8.284,0 15,6.716 15,15 0,8.284 -6.716,15 -15,15 z"
       fill="#9cd6f4"
       id="path155" />
    <path
       d="m 216,359 h -16 c -8.284,0 -15,-6.716 -15,-15 0,-8.284 6.716,-15 15,-15 h 16 c 8.284,0 15,6.716 15,15 0,8.284 -6.716,15 -15,15 z"
       fill="#f1f6ff"
       id="path157" />
    <g
       fill="#dfe5f2"
       id="g167">
      <path
         d="m 296,359 h -16 c -8.284,0 -15,-6.716 -15,-15 0,-8.284 6.716,-15 15,-15 h 16 c 8.284,0 15,6.716 15,15 0,8.284 -6.716,15 -15,15 z"
         id="path159" />
      <path
         d="m 376,359 h -16 c -8.284,0 -15,-6.716 -15,-15 0,-8.284 6.716,-15 15,-15 h 16 c 8.284,0 15,6.716 15,15 0,8.284 -6.716,15 -15,15 z"
         id="path161" />
      <path
         d="m 416,295 h -16 c -8.284,0 -15,-6.716 -15,-15 0,-8.284 6.716,-15 15,-15 h 16 c 8.284,0 15,6.716 15,15 0,8.284 -6.716,15 -15,15 z"
         id="path163" />
      <path
         d="m 336,295 h -16 c -8.284,0 -15,-6.716 -15,-15 0,-8.284 6.716,-15 15,-15 h 16 c 8.284,0 15,6.716 15,15 0,8.284 -6.716,15 -15,15 z"
         id="path165" />
    </g>
    <path
       d="m 271,280 c 0,8.28 -6.72,15 -15,15 h -16 c -8.28,0 -15,-6.72 -15,-15 0,-8.28 6.72,-15 15,-15 h 16 c 8.28,0 15,6.72 15,15 z"
       fill="#f1f6ff"
       id="path169" />
    <path
       d="m 256,295 v -30 c 8.28,0 15,6.72 15,15 0,8.28 -6.72,15 -15,15 z"
       fill="#dfe5f2"
       id="path171" />
    <path
       d="m 176,295 h -16 c -8.284,0 -15,-6.716 -15,-15 0,-8.284 6.716,-15 15,-15 h 16 c 8.284,0 15,6.716 15,15 0,8.284 -6.716,15 -15,15 z"
       fill="#f1f6ff"
       id="path173" />
    <path
       d="M 96,295 H 80 c -8.284,0 -15,-6.716 -15,-15 0,-8.284 6.716,-15 15,-15 h 16 c 8.284,0 15,6.716 15,15 0,8.284 -6.716,15 -15,15 z"
       fill="#f1f6ff"
       id="path175" />
    <path
       d="m 432,423 h -16 c -8.284,0 -15,-6.716 -15,-15 0,-8.284 6.716,-15 15,-15 h 16 c 8.284,0 15,6.716 15,15 0,8.284 -6.716,15 -15,15 z"
       fill="#dfe5f2"
       id="path177" />
    <path
       d="m 367,408 c 0,8.28 -6.72,15 -15,15 H 160 c -8.28,0 -15,-6.72 -15,-15 0,-8.28 6.72,-15 15,-15 h 192 c 8.28,0 15,6.72 15,15 z"
       fill="#f1f6ff"
       id="path179" />
    <path
       d="m 367,408 c 0,8.28 -6.72,15 -15,15 h -96 v -30 h 96 c 8.28,0 15,6.72 15,15 z"
       fill="#dfe5f2"
       id="path181" />
  </g>
</svg>
