<?xml version="1.0" encoding="UTF-8" standalone="no"?>
<svg
   xmlns:dc="http://purl.org/dc/elements/1.1/"
   xmlns:cc="http://creativecommons.org/ns#"
   xmlns:rdf="http://www.w3.org/1999/02/22-rdf-syntax-ns#"
   xmlns:svg="http://www.w3.org/2000/svg"
   xmlns="http://www.w3.org/2000/svg"
   xmlns:sodipodi="http://sodipodi.sourceforge.net/DTD/sodipodi-0.dtd"
   xmlns:inkscape="http://www.inkscape.org/namespaces/inkscape"
   height="512pt"
   viewBox="0 0 512 512"
   width="512pt"
   version="1.1"
   id="svg232"
   sodipodi:docname="voicekit_off.svg"
   inkscape:version="1.0.2 (e86c8708, 2021-01-15)">
  <metadata
     id="metadata238">
    <rdf:RDF>
      <cc:Work
         rdf:about="">
        <dc:format>image/svg+xml</dc:format>
        <dc:type
           rdf:resource="http://purl.org/dc/dcmitype/StillImage" />
        <dc:title></dc:title>
      </cc:Work>
    </rdf:RDF>
  </metadata>
  <defs
     id="defs236" />
  <sodipodi:namedview
     pagecolor="#ffffff"
     bordercolor="#666666"
     borderopacity="1"
     objecttolerance="10"
     gridtolerance="10"
     guidetolerance="10"
     inkscape:pageopacity="0"
     inkscape:pageshadow="2"
     inkscape:window-width="1920"
     inkscape:window-height="1103"
     id="namedview234"
     showgrid="false"
     fit-margin-top="0"
     fit-margin-left="0"
     fit-margin-right="0"
     fit-margin-bottom="0"
     inkscape:zoom="1.0766602"
     inkscape:cx="341.33333"
     inkscape:cy="341.33333"
     inkscape:window-x="0"
     inkscape:window-y="25"
     inkscape:window-maximized="1"
     inkscape:current-layer="svg232" />
  <path
     d="m 8.535156,401.06641 c 4.710938,0 8.53125,-3.82032 8.53125,-8.53125 v -17.07032 c 0,-4.71093 -3.820312,-8.53125 -8.53125,-8.53125 C 3.820312,366.93359 0,370.75391 0,375.46484 v 17.07032 c 0,4.71093 3.820312,8.53125 8.535156,8.53125 z m 0,0"
     id="path192" />
  <path
     d="m 42.667969,401.06641 v -34.13282 c 0,-4.71484 -3.820313,-8.53515 -8.535157,-8.53515 -4.710937,0 -8.53125,3.82031 -8.53125,8.53515 v 34.13282 c 0,4.71484 3.820313,8.53515 8.53125,8.53515 4.714844,0 8.535157,-3.82031 8.535157,-8.53515 z m 0,0"
     id="path194" />
  <path
     d="m 145.06641,401.06641 v -34.13282 c 0,-4.71484 -3.82032,-8.53515 -8.53125,-8.53515 -4.71485,0 -8.53516,3.82031 -8.53516,8.53515 v 34.13282 c 0,4.71484 3.82031,8.53515 8.53516,8.53515 4.71093,0 8.53125,-3.82031 8.53125,-8.53515 z m 0,0"
     id="path196" />
  <path
     d="m 76.800781,418.13281 v -68.26562 c 0,-4.71485 -3.820312,-8.53516 -8.535156,-8.53516 -4.710937,0 -8.53125,3.82031 -8.53125,8.53516 v 68.26562 c 0,4.71485 3.820313,8.53516 8.53125,8.53516 4.714844,0 8.535156,-3.82031 8.535156,-8.53516 z m 0,0"
     id="path198" />
  <path
     d="m 110.93359,418.13281 v -68.26562 c 0,-4.71485 -3.82031,-8.53516 -8.53515,-8.53516 -4.71094,0 -8.531252,3.82031 -8.531252,8.53516 v 68.26562 c 0,4.71485 3.820312,8.53516 8.531252,8.53516 4.71484,0 8.53515,-3.82031 8.53515,-8.53516 z m 0,0"
     id="path200" />
  <path
     d="M 179.19922,435.19922 V 332.80078 c 0,-4.71484 -3.82031,-8.53516 -8.53125,-8.53516 -4.71485,0 -8.53516,3.82032 -8.53516,8.53516 v 102.39844 c 0,4.71484 3.82031,8.53515 8.53516,8.53515 4.71094,0 8.53125,-3.82031 8.53125,-8.53515 z m 0,0"
     id="path202" />
  <path
     d="M 213.33203,452.26562 V 315.73437 c 0,-4.71484 -3.82031,-8.53515 -8.53125,-8.53515 -4.71484,0 -8.53516,3.82031 -8.53516,8.53515 v 136.53125 c 0,4.71485 3.82032,8.53516 8.53516,8.53516 4.71094,0 8.53125,-3.82031 8.53125,-8.53516 z m 0,0"
     id="path204" />
  <path
     d="M 247.46484,503.46484 V 264.53516 c 0,-4.71485 -3.82031,-8.53516 -8.53125,-8.53516 -4.71484,0 -8.53515,3.82031 -8.53515,8.53516 v 238.92968 c 0,4.71485 3.82031,8.53516 8.53515,8.53516 4.71094,0 8.53125,-3.82031 8.53125,-8.53516 z m 0,0"
     id="path206" />
  <path
     d="m 503.46484,366.93359 c -4.71093,0 -8.53125,3.82032 -8.53125,8.53125 v 17.07032 c 0,4.71093 3.82032,8.53125 8.53125,8.53125 4.71485,0 8.53516,-3.82032 8.53516,-8.53125 v -17.07032 c 0,-4.71093 -3.82031,-8.53125 -8.53516,-8.53125 z m 0,0"
     id="path208" />
  <path
     d="m 486.39844,401.06641 v -34.13282 c 0,-4.71484 -3.82032,-8.53515 -8.53125,-8.53515 -4.71485,0 -8.53516,3.82031 -8.53516,8.53515 v 34.13282 c 0,4.71484 3.82031,8.53515 8.53516,8.53515 4.71093,0 8.53125,-3.82031 8.53125,-8.53515 z m 0,0"
     id="path210" />
  <path
     d="m 384,401.06641 v -34.13282 c 0,-4.71484 -3.82031,-8.53515 -8.53516,-8.53515 -4.71093,0 -8.53125,3.82031 -8.53125,8.53515 v 34.13282 c 0,4.71484 3.82032,8.53515 8.53125,8.53515 4.71485,0 8.53516,-3.82031 8.53516,-8.53515 z m 0,0"
     id="path212" />
  <path
     d="m 452.26562,418.13281 v -68.26562 c 0,-4.71485 -3.82031,-8.53516 -8.53125,-8.53516 -4.71484,0 -8.53515,3.82031 -8.53515,8.53516 v 68.26562 c 0,4.71485 3.82031,8.53516 8.53515,8.53516 4.71094,0 8.53125,-3.82031 8.53125,-8.53516 z m 0,0"
     id="path214" />
  <path
     d="m 418.13281,418.13281 v -68.26562 c 0,-4.71485 -3.82031,-8.53516 -8.53125,-8.53516 -4.71484,0 -8.53515,3.82031 -8.53515,8.53516 v 68.26562 c 0,4.71485 3.82031,8.53516 8.53515,8.53516 4.71094,0 8.53125,-3.82031 8.53125,-8.53516 z m 0,0"
     id="path216" />
  <path
     d="M 349.86719,435.19922 V 332.80078 c 0,-4.71484 -3.82032,-8.53516 -8.53516,-8.53516 -4.71094,0 -8.53125,3.82032 -8.53125,8.53516 v 102.39844 c 0,4.71484 3.82031,8.53515 8.53125,8.53515 4.71484,0 8.53516,-3.82031 8.53516,-8.53515 z m 0,0"
     id="path218" />
  <path
     d="M 315.73437,452.26562 V 315.73437 c 0,-4.71484 -3.82031,-8.53515 -8.53515,-8.53515 -4.71094,0 -8.53125,3.82031 -8.53125,8.53515 v 136.53125 c 0,4.71485 3.82031,8.53516 8.53125,8.53516 4.71484,0 8.53515,-3.82031 8.53515,-8.53516 z m 0,0"
     id="path220" />
  <path
     d="M 281.60156,503.46484 V 264.53516 c 0,-4.71485 -3.82031,-8.53516 -8.53515,-8.53516 -4.71094,0 -8.53125,3.82031 -8.53125,8.53516 v 238.92968 c 0,4.71485 3.82031,8.53516 8.53125,8.53516 4.71484,0 8.53515,-3.82031 8.53515,-8.53516 z m 0,0"
     id="path222" />
  <path
     d="M 460.80078,0 H 290.13281 C 261.87109,0.03125 238.96484,22.9375 238.93359,51.199219 V 170.66797 c 0.0312,28.26172 22.9375,51.16797 51.19922,51.19922 H 305 l -6.26563,50.14062 c -0.42187,3.375 1.19922,6.67969 4.12891,8.40625 2.92969,1.73047 6.60547,1.55469 9.35938,-0.44922 l 79.88281,-58.09765 h 68.69531 C 489.0625,221.83594 511.96875,198.92969 512,170.66797 V 51.199219 C 511.96875,22.9375 489.0625,0.03125 460.80078,0 Z m 34.13281,170.66797 c -0.0195,18.84375 -15.28906,34.11328 -34.13281,34.13281 h -51.35156 c 0.0586,-1.78906 -0.46094,-3.54687 -1.48438,-5.01562 -1.32812,-1.83594 -3.33203,-3.06641 -5.5664,-3.41797 -2.23828,-0.35547 -4.52344,0.19922 -6.35157,1.53125 l -77.93359,56.68359 6.08594,-48.72266 c 0.42187,-3.04687 -0.82813,-6.08203 -3.27344,-7.94921 -2.44531,-1.86719 -5.70312,-2.27344 -8.53125,-1.06641 -2.82422,1.20703 -4.78515,3.84375 -5.1289,6.89844 l -0.13282,1.05859 h -17 C 271.28906,204.78125 256.01953,189.51172 256,170.66797 V 51.199219 c 0.0195,-18.84375 15.28906,-34.113281 34.13281,-34.132813 h 170.66797 c 18.84375,0.01953 34.11328,15.289063 34.13281,34.132813 z m 0,0"
     id="path224" />
  <path
     d="m 307.19922,85.332031 c -14.13672,0 -25.59766,11.460938 -25.59766,25.601559 0,14.13672 11.46094,25.60157 25.59766,25.60157 14.14062,0 25.60156,-11.46485 25.60156,-25.60157 -0.0156,-14.132809 -11.46875,-25.585934 -25.60156,-25.601559 z m 0,34.132809 c -4.71094,0 -8.53125,-3.82031 -8.53125,-8.53125 0,-4.71484 3.82031,-8.53515 8.53125,-8.53515 4.71484,0 8.53515,3.82031 8.53515,8.53515 -0.004,4.71094 -3.82421,8.52735 -8.53515,8.53125 z m 0,0"
     id="path226" />
  <path
     d="m 375.46484,85.332031 c -14.13672,0 -25.59765,11.460938 -25.59765,25.601559 0,14.13672 11.46094,25.60157 25.59765,25.60157 14.14063,0 25.60157,-11.46485 25.60157,-25.60157 -0.0156,-14.132809 -11.46875,-25.585934 -25.60157,-25.601559 z m 0,34.132809 c -4.71093,0 -8.53125,-3.82031 -8.53125,-8.53125 0,-4.71484 3.82032,-8.53515 8.53125,-8.53515 4.71485,0 8.53516,3.82031 8.53516,8.53515 -0.004,4.71094 -3.82031,8.52735 -8.53516,8.53125 z m 0,0"
     id="path228" />
  <path
     d="m 443.73437,85.332031 c -14.14062,0 -25.60156,11.460938 -25.60156,25.601559 0,14.13672 11.46094,25.60157 25.60156,25.60157 14.13672,0 25.59766,-11.46485 25.59766,-25.60157 -0.0156,-14.132809 -11.46484,-25.585934 -25.59766,-25.601559 z m 0,34.132809 c -4.71484,0 -8.53515,-3.82031 -8.53515,-8.53125 0,-4.71484 3.82031,-8.53515 8.53515,-8.53515 4.71094,0 8.53125,3.82031 8.53125,8.53515 -0.004,4.71094 -3.82031,8.52735 -8.53125,8.53125 z m 0,0"
     id="path230" />
</svg>
