<?xml version="1.0" encoding="UTF-8" standalone="no"?>
<svg
   xmlns:dc="http://purl.org/dc/elements/1.1/"
   xmlns:cc="http://creativecommons.org/ns#"
   xmlns:rdf="http://www.w3.org/1999/02/22-rdf-syntax-ns#"
   xmlns:svg="http://www.w3.org/2000/svg"
   xmlns="http://www.w3.org/2000/svg"
   xmlns:sodipodi="http://sodipodi.sourceforge.net/DTD/sodipodi-0.dtd"
   xmlns:inkscape="http://www.inkscape.org/namespaces/inkscape"
   height="503.46484pt"
   viewBox="0 -4 512 502.48151"
   width="512pt"
   version="1.1"
   id="svg284"
   sodipodi:docname="voicekit_on.svg"
   inkscape:version="1.0.2 (e86c8708, 2021-01-15)">
  <metadata
     id="metadata290">
    <rdf:RDF>
      <cc:Work
         rdf:about="">
        <dc:format>image/svg+xml</dc:format>
        <dc:type
           rdf:resource="http://purl.org/dc/dcmitype/StillImage" />
        <dc:title></dc:title>
      </cc:Work>
    </rdf:RDF>
  </metadata>
  <defs
     id="defs288" />
  <sodipodi:namedview
     pagecolor="#ffffff"
     bordercolor="#666666"
     borderopacity="1"
     objecttolerance="10"
     gridtolerance="10"
     guidetolerance="10"
     inkscape:pageopacity="0"
     inkscape:pageshadow="2"
     inkscape:window-width="1920"
     inkscape:window-height="1103"
     id="namedview286"
     showgrid="false"
     fit-margin-top="0"
     fit-margin-left="0"
     fit-margin-right="0"
     fit-margin-bottom="0"
     inkscape:zoom="1.0766602"
     inkscape:cx="341.33333"
     inkscape:cy="334.66667"
     inkscape:window-x="0"
     inkscape:window-y="25"
     inkscape:window-maximized="1"
     inkscape:current-layer="svg284" />
  <path
     d="m 389.375,200.30078 h 71.42578 c 23.55859,-0.008 42.65625,-19.10547 42.66406,-42.66797 V 38.167969 C 503.45703,14.605469 484.35937,-4.492188 460.80078,-4.5 H 290.13281 c -23.55859,0.00781 -42.65625,19.105469 -42.66797,42.667969 V 157.63281 c 0.0117,23.5625 19.10938,42.66016 42.66797,42.66797 h 24.57813"
     fill="#955ba5"
     id="path240" />
  <path
     d="m 315.73437,191.76562 -8.53515,68.26954 93.86719,-68.26953"
     fill="#955ba5"
     id="path242" />
  <path
     d="m 324.26562,97.89844 c 0,9.42578 -7.64062,17.0664 -17.0664,17.0664 -9.42578,0 -17.06641,-7.64062 -17.06641,-17.0664 0,-9.425784 7.64063,-17.066409 17.06641,-17.066409 9.42578,0 17.0664,7.640625 17.0664,17.066409 z m 0,0"
     fill="#f3d55b"
     id="path244" />
  <path
     d="m 392.53516,97.89844 c 0,9.42578 -7.64454,17.0664 -17.07032,17.0664 -9.42578,0 -17.0664,-7.64062 -17.0664,-17.0664 0,-9.425784 7.64062,-17.066409 17.0664,-17.066409 9.42578,0 17.07032,7.640625 17.07032,17.066409 z m 0,0"
     fill="#f3d55b"
     id="path246" />
  <path
     d="m 460.80078,97.89844 c 0,9.42578 -7.64062,17.0664 -17.06641,17.0664 -9.42578,0 -17.0664,-7.64062 -17.0664,-17.0664 0,-9.425784 7.64062,-17.066409 17.0664,-17.066409 9.42579,0 17.06641,7.640625 17.06641,17.066409 z m 0,0"
     fill="#f3d55b"
     id="path248" />
  <g
     fill="#2fa8cc"
     id="g282"
     transform="translate(0,-5)">
    <path
       d="M 8.535156,393.03516 C 3.820312,393.03516 0,389.21094 0,384.5 v -17.06641 c 0,-4.71484 3.820312,-8.53515 8.535156,-8.53515 4.710938,0 8.53125,3.82031 8.53125,8.53515 V 384.5 c 0,4.71094 -3.820312,8.53516 -8.53125,8.53516 z m 0,0"
       id="path250" />
    <path
       d="m 34.132812,401.56641 c -4.710937,0 -8.53125,-3.82032 -8.53125,-8.53125 v -34.13672 c 0,-4.71094 3.820313,-8.53125 8.53125,-8.53125 4.714844,0 8.535157,3.82031 8.535157,8.53125 v 34.13672 c 0,4.71093 -3.820313,8.53125 -8.535157,8.53125 z m 0,0"
       id="path252" />
    <path
       d="m 136.53516,401.56641 c -4.71485,0 -8.53516,-3.82032 -8.53516,-8.53125 v -34.13672 c 0,-4.71094 3.82031,-8.53125 8.53516,-8.53125 4.71093,0 8.53125,3.82031 8.53125,8.53125 v 34.13672 c 0,4.71093 -3.82032,8.53125 -8.53125,8.53125 z m 0,0"
       id="path254" />
    <path
       d="m 68.265625,418.63281 c -4.710937,0 -8.53125,-3.82031 -8.53125,-8.53125 v -68.26953 c 0,-4.71094 3.820313,-8.53125 8.53125,-8.53125 4.714844,0 8.535156,3.82031 8.535156,8.53125 v 68.26953 c 0,4.71094 -3.820312,8.53125 -8.535156,8.53125 z m 0,0"
       id="path256" />
    <path
       d="m 102.39844,418.63281 c -4.71094,0 -8.531252,-3.82031 -8.531252,-8.53125 v -68.26953 c 0,-4.71094 3.820312,-8.53125 8.531252,-8.53125 4.71484,0 8.53515,3.82031 8.53515,8.53125 v 68.26953 c 0,4.71094 -3.82031,8.53125 -8.53515,8.53125 z m 0,0"
       id="path258" />
    <path
       d="m 170.66797,435.69922 c -4.71485,0 -8.53516,-3.82031 -8.53516,-8.53125 V 324.76562 c 0,-4.71093 3.82031,-8.53125 8.53516,-8.53125 4.71094,0 8.53125,3.82032 8.53125,8.53125 v 102.40235 c 0,4.71094 -3.82031,8.53125 -8.53125,8.53125 z m 0,0"
       id="path260" />
    <path
       d="m 204.80078,452.76562 c -4.71484,0 -8.53516,-3.82031 -8.53516,-8.53125 V 307.69922 c 0,-4.71094 3.82032,-8.53125 8.53516,-8.53125 4.71094,0 8.53125,3.82031 8.53125,8.53125 v 136.53515 c 0,4.71094 -3.82031,8.53125 -8.53125,8.53125 z m 0,0"
       id="path262" />
    <path
       d="m 238.93359,503.96484 c -4.71484,0 -8.53515,-3.82031 -8.53515,-8.53125 V 256.5 c 0,-4.71094 3.82031,-8.53516 8.53515,-8.53516 4.71094,0 8.53125,3.82422 8.53125,8.53516 v 238.93359 c 0,4.71094 -3.82031,8.53125 -8.53125,8.53125 z m 0,0"
       id="path264" />
    <path
       d="m 503.46484,393.03516 c -4.71093,0 -8.53125,-3.82422 -8.53125,-8.53516 v -17.06641 c 0,-4.71484 3.82032,-8.53515 8.53125,-8.53515 4.71485,0 8.53516,3.82031 8.53516,8.53515 V 384.5 c 0,4.71094 -3.82031,8.53516 -8.53516,8.53516 z m 0,0"
       id="path266" />
    <path
       d="m 477.86719,401.56641 c -4.71485,0 -8.53516,-3.82032 -8.53516,-8.53125 v -34.13672 c 0,-4.71094 3.82031,-8.53125 8.53516,-8.53125 4.71093,0 8.53125,3.82031 8.53125,8.53125 v 34.13672 c 0,4.71093 -3.82032,8.53125 -8.53125,8.53125 z m 0,0"
       id="path268" />
    <path
       d="m 375.46484,401.56641 c -4.71093,0 -8.53125,-3.82032 -8.53125,-8.53125 v -34.13672 c 0,-4.71094 3.82032,-8.53125 8.53125,-8.53125 4.71485,0 8.53516,3.82031 8.53516,8.53125 v 34.13672 c 0,4.71093 -3.82031,8.53125 -8.53516,8.53125 z m 0,0"
       id="path270" />
    <path
       d="m 443.73437,418.63281 c -4.71484,0 -8.53515,-3.82031 -8.53515,-8.53125 v -68.26953 c 0,-4.71094 3.82031,-8.53125 8.53515,-8.53125 4.71094,0 8.53125,3.82031 8.53125,8.53125 v 68.26953 c 0,4.71094 -3.82031,8.53125 -8.53125,8.53125 z m 0,0"
       id="path272" />
    <path
       d="m 409.60156,418.63281 c -4.71484,0 -8.53515,-3.82031 -8.53515,-8.53125 v -68.26953 c 0,-4.71094 3.82031,-8.53125 8.53515,-8.53125 4.71094,0 8.53125,3.82031 8.53125,8.53125 v 68.26953 c 0,4.71094 -3.82031,8.53125 -8.53125,8.53125 z m 0,0"
       id="path274" />
    <path
       d="m 341.33203,435.69922 c -4.71094,0 -8.53125,-3.82031 -8.53125,-8.53125 V 324.76562 c 0,-4.71093 3.82031,-8.53125 8.53125,-8.53125 4.71484,0 8.53516,3.82032 8.53516,8.53125 v 102.40235 c 0,4.71094 -3.82032,8.53125 -8.53516,8.53125 z m 0,0"
       id="path276" />
    <path
       d="m 307.19922,452.76562 c -4.71094,0 -8.53125,-3.82031 -8.53125,-8.53125 V 307.69922 c 0,-4.71094 3.82031,-8.53125 8.53125,-8.53125 4.71484,0 8.53515,3.82031 8.53515,8.53125 v 136.53515 c 0,4.71094 -3.82031,8.53125 -8.53515,8.53125 z m 0,0"
       id="path278" />
    <path
       d="m 273.06641,503.96484 c -4.71094,0 -8.53125,-3.82031 -8.53125,-8.53125 V 256.5 c 0,-4.71094 3.82031,-8.53516 8.53125,-8.53516 4.71484,0 8.53515,3.82422 8.53515,8.53516 v 238.93359 c 0,4.71094 -3.82031,8.53125 -8.53515,8.53125 z m 0,0"
       id="path280" />
  </g>
</svg>
