<svg id="Layer_1" height="512" viewBox="0 0 128 128" width="512" xmlns="http://www.w3.org/2000/svg" data-name="Layer 1"><path d="m121.5 66.809a17.376 17.376 0 0 1 -17.38 17.37h-80.24a17.375 17.375 0 1 1 0-34.75 18 18 0 0 1 2.96.25 27.138 27.138 0 0 1 35.54-18.06 28.759 28.759 0 0 1 44.28 18 17.372 17.372 0 0 1 14.84 17.19z" fill="#45aeef"/><path d="m121.5 88.747a12.579 12.579 0 0 1 -12.582 12.574h-58.086a12.578 12.578 0 1 1 0-25.156 13.006 13.006 0 0 1 2.142.181 19.647 19.647 0 0 1 25.726-13.074 20.819 20.819 0 0 1 32.057 13.028 12.575 12.575 0 0 1 10.743 12.447z" fill="#72bdf6"/><g fill="#120e30"><path d="m26.552 51.406a1.743 1.743 0 0 0 1.972-1.252 25.448 25.448 0 0 1 24.416-18.474 25.083 25.083 0 0 1 8.827 1.579 1.754 1.754 0 0 0 1.595-.191 27.069 27.069 0 0 1 23.828-3.21 1.75 1.75 0 1 0 1.125-3.314 30.572 30.572 0 0 0 -26.169 3.136 28.617 28.617 0 0 0 -9.206-1.5 28.972 28.972 0 0 0 -27.34 19.578 19.125 19.125 0 1 0 -1.72 38.172h5.37a1.75 1.75 0 0 0 0-3.5h-5.37a15.627 15.627 0 1 1 2.672-31.024z"/><path d="m92.948 32.616c.612.388 1.214.806 1.791 1.241a1.75 1.75 0 1 0 2.108-2.794c-.652-.492-1.332-.963-2.022-1.4a1.75 1.75 0 1 0 -1.877 2.955z"/><path d="m119.1 78.7a18.99 18.99 0 0 0 4.15-11.89 19.221 19.221 0 0 0 -15.139-18.71 30.476 30.476 0 0 0 -6.521-12.6 1.75 1.75 0 1 0 -2.649 2.287 26.945 26.945 0 0 1 6 12.184 1.753 1.753 0 0 0 1.463 1.38 15.689 15.689 0 0 1 13.346 15.459 15.506 15.506 0 0 1 -3.392 9.709 14.118 14.118 0 0 0 -4.158-1.719 22.57 22.57 0 0 0 -34.48-12.976 1.75 1.75 0 0 0 1.965 2.9 19.067 19.067 0 0 1 29.357 11.932 1.748 1.748 0 0 0 1.463 1.381 10.827 10.827 0 0 1 -1.587 21.537h-58.086a10.828 10.828 0 1 1 0-21.656 11.408 11.408 0 0 1 1.856.157 1.747 1.747 0 0 0 1.971-1.252 17.934 17.934 0 0 1 14.2-12.77 1.75 1.75 0 1 0 -.584-3.451 21.457 21.457 0 0 0 -16.528 13.842 14.328 14.328 0 1 0 -.915 28.627h58.086a14.3 14.3 0 0 0 10.182-24.371z"/></g></svg>