<?xml version="1.0" encoding="UTF-8" standalone="no"?>
<svg
   xmlns:dc="http://purl.org/dc/elements/1.1/"
   xmlns:cc="http://creativecommons.org/ns#"
   xmlns:rdf="http://www.w3.org/1999/02/22-rdf-syntax-ns#"
   xmlns:svg="http://www.w3.org/2000/svg"
   xmlns="http://www.w3.org/2000/svg"
   xmlns:sodipodi="http://sodipodi.sourceforge.net/DTD/sodipodi-0.dtd"
   xmlns:inkscape="http://www.inkscape.org/namespaces/inkscape"
   enable-background="new 0 0 96 96"
   height="56"
   version="1.1"
   viewBox="0 0 52 56"
   width="52"
   xml:space="preserve"
   id="svg109"
   sodipodi:docname="umbrella.svg"
   inkscape:version="1.0.2 (e86c8708, 2021-01-15)"><metadata
     id="metadata115"><rdf:RDF><cc:Work
         rdf:about=""><dc:format>image/svg+xml</dc:format><dc:type
           rdf:resource="http://purl.org/dc/dcmitype/StillImage" /><dc:title></dc:title></cc:Work></rdf:RDF></metadata><defs
     id="defs113" /><sodipodi:namedview
     pagecolor="#ffffff"
     bordercolor="#666666"
     borderopacity="1"
     objecttolerance="10"
     gridtolerance="10"
     guidetolerance="10"
     inkscape:pageopacity="0"
     inkscape:pageshadow="2"
     inkscape:window-width="1920"
     inkscape:window-height="1103"
     id="namedview111"
     showgrid="false"
     fit-margin-top="0"
     fit-margin-left="0"
     fit-margin-right="0"
     fit-margin-bottom="0"
     inkscape:zoom="7.65625"
     inkscape:cx="26"
     inkscape:cy="30"
     inkscape:window-x="0"
     inkscape:window-y="25"
     inkscape:window-maximized="1"
     inkscape:current-layer="svg109" /><g
     id="Dibujo"
     transform="translate(-22,-18)"><path
       d="M 50,22.085 V 20 c 0,-1.104 -0.896,-2 -2,-2 -1.105,0 -2,0.896 -2,2 v 2.085 C 32.595,23.11 22,34.337 22,48 c 0,1.104 0.895,2 2,2 1.104,0 2,-0.896 2,-2 0,-2.206 1.794,-4 4,-4 2.206,0 4,1.794 4,4 0,1.104 0.895,2 2,2 1.104,0 2,-0.896 2,-2 0,-2.206 1.794,-4 4,-4 2.206,0 4,1.794 4,4 v 21 c 0,2.757 2.243,5 5,5 2.757,0 5,-2.243 5,-5 0,-1.104 -0.896,-2 -2,-2 -1.105,0 -2,0.896 -2,2 0,0.552 -0.448,1 -1,1 -0.552,0 -1,-0.448 -1,-1 V 48 c 0,-2.206 1.794,-4 4,-4 2.206,0 4,1.794 4,4 0,1.104 0.895,2 2,2 1.104,0 2,-0.896 2,-2 0,-2.206 1.794,-4 4,-4 2.206,0 4,1.794 4,4 0,1.104 0.895,2 2,2 1.104,0 2,-0.896 2,-2 C 74,34.337 63.405,23.11 50,22.085 Z"
       id="path106" /></g></svg>
