<?xml version="1.0" encoding="UTF-8" standalone="no"?>
<svg
   xmlns:dc="http://purl.org/dc/elements/1.1/"
   xmlns:cc="http://creativecommons.org/ns#"
   xmlns:rdf="http://www.w3.org/1999/02/22-rdf-syntax-ns#"
   xmlns:svg="http://www.w3.org/2000/svg"
   xmlns="http://www.w3.org/2000/svg"
   xmlns:sodipodi="http://sodipodi.sourceforge.net/DTD/sodipodi-0.dtd"
   xmlns:inkscape="http://www.inkscape.org/namespaces/inkscape"
   id="Capa_1"
   enable-background="new 0 0 512 512"
   height="512"
   viewBox="0 0 512.00049 512"
   width="512.00049"
   version="1.1"
   sodipodi:docname="humidity.svg"
   inkscape:version="1.0.2 (e86c8708, 2021-01-15)">
  <metadata
     id="metadata180">
    <rdf:RDF>
      <cc:Work
         rdf:about="">
        <dc:format>image/svg+xml</dc:format>
        <dc:type
           rdf:resource="http://purl.org/dc/dcmitype/StillImage" />
        <dc:title></dc:title>
      </cc:Work>
    </rdf:RDF>
  </metadata>
  <defs
     id="defs178" />
  <sodipodi:namedview
     pagecolor="#ffffff"
     bordercolor="#666666"
     borderopacity="1"
     objecttolerance="10"
     gridtolerance="10"
     guidetolerance="10"
     inkscape:pageopacity="0"
     inkscape:pageshadow="2"
     inkscape:window-width="1920"
     inkscape:window-height="1103"
     id="namedview176"
     showgrid="false"
     fit-margin-top="0"
     fit-margin-left="0"
     fit-margin-right="0"
     fit-margin-bottom="0"
     inkscape:zoom="1.4355469"
     inkscape:cx="256"
     inkscape:cy="256"
     inkscape:window-x="0"
     inkscape:window-y="25"
     inkscape:window-maximized="1"
     inkscape:current-layer="Capa_1" />
  <g
     id="XMLID_2040_">
    <circle
       id="XMLID_1170_"
       cx="210"
       cy="302"
       fill="#91def5"
       r="200" />
    <path
       id="XMLID_1252_"
       d="M 310.911,116.754 394.99,10 479.069,116.754 c 33.55,42.598 29.941,103.557 -8.401,141.899 -41.796,41.796 -109.561,41.796 -151.357,0 -38.342,-38.342 -41.951,-99.301 -8.4,-141.899 z"
       fill="#dff6fc" />
    <g
       id="XMLID_759_">
      <path
         id="XMLID_760_"
         d="m 174.798,388.747 c 1.265,0.531 2.576,0.782 3.866,0.782 3.907,0 7.618,-2.304 9.225,-6.133 l 64.758,-154.303 c 2.138,-5.092 -0.259,-10.953 -5.351,-13.09 -5.095,-2.138 -10.954,0.258 -13.091,5.351 l -64.758,154.303 c -2.137,5.092 0.259,10.953 5.351,13.09 z" />
      <path
         id="XMLID_763_"
         d="m 199.375,247.585 c 0,-21.81 -16.087,-39.553 -35.859,-39.553 -19.772,0 -35.858,17.743 -35.858,39.553 0,21.81 16.086,39.553 35.858,39.553 19.772,0 35.859,-17.744 35.859,-39.553 z m -35.859,19.552 c -8.744,0 -15.858,-8.771 -15.858,-19.553 0,-10.782 7.114,-19.553 15.858,-19.553 8.745,0 15.859,8.771 15.859,19.553 0,10.782 -7.114,19.553 -15.859,19.553 z" />
      <path
         id="XMLID_770_"
         d="m 256.484,400.032 c 19.772,0 35.858,-17.743 35.858,-39.553 0,-21.81 -16.086,-39.553 -35.858,-39.553 -19.772,0 -35.859,17.743 -35.859,39.553 0,21.81 16.087,39.553 35.859,39.553 z m 0,-59.106 c 8.744,0 15.858,8.771 15.858,19.553 0,10.782 -7.114,19.553 -15.858,19.553 -8.745,0 -15.859,-8.771 -15.859,-19.553 0,-10.782 7.114,-19.553 15.859,-19.553 z" />
      <path
         id="XMLID_773_"
         d="M 486.926,110.567 402.847,3.813 C 400.95,1.405 398.055,0 394.99,0 c -3.065,0 -5.96,1.405 -7.855,3.813 l -84.081,106.754 c -0.598,0.759 -1.184,1.524 -1.76,2.293 C 273,99.204 241.625,92 210,92 94.206,92 0,186.206 0,302 c 0,115.794 94.206,210 210,210 39.357,0 77.729,-10.955 110.966,-31.681 4.687,-2.922 6.116,-9.09 3.194,-13.776 -2.922,-4.687 -9.09,-6.117 -13.776,-3.194 C 280.324,482.092 245.612,492 210,492 105.233,492 20,406.767 20,302 20,197.233 105.233,112 210,112 c 27.901,0 55.58,6.193 80.663,17.946 -22.563,44.347 -14.795,99.405 21.578,135.777 22.103,22.104 51.49,34.277 82.748,34.277 1.665,0 3.324,-0.042 4.978,-0.111 0.008,0.704 0.033,1.409 0.033,2.111 0,35.875 -10.045,70.807 -29.048,101.018 -2.94,4.675 -1.534,10.848 3.141,13.789 1.654,1.041 3.495,1.537 5.314,1.537 3.323,0 6.574,-1.656 8.475,-4.677 C 408.894,380.262 420,341.648 420,302 c 0,-1.547 -0.039,-3.102 -0.073,-4.655 21.74,-4.695 41.71,-15.52 57.812,-31.621 41.902,-41.901 45.851,-108.604 9.187,-155.157 z M 394.989,280 c -25.916,0 -50.281,-10.092 -68.606,-28.418 -34.741,-34.74 -38.016,-90.043 -7.616,-128.64 h -10e-4 l 76.225,-96.779 76.223,96.779 c 30.399,38.597 27.125,93.9 -7.616,128.641 C 445.271,269.908 420.906,280 394.989,280 Z" />
      <path
         id="XMLID_799_"
         d="m 351.34,433.5 c -2.64,0 -5.22,1.07 -7.07,2.93 -1.859,1.86 -2.93,4.44 -2.93,7.07 0,2.64 1.07,5.21 2.93,7.08 1.86,1.86 4.431,2.92 7.07,2.92 2.63,0 5.2,-1.06 7.07,-2.92 1.859,-1.87 2.93,-4.44 2.93,-7.08 0,-2.63 -1.07,-5.21 -2.93,-7.07 -1.86,-1.86 -4.44,-2.93 -7.07,-2.93 z" />
    </g>
  </g>
</svg>
