<?xml version="1.0" encoding="UTF-8" standalone="no"?>
<svg
   xmlns:dc="http://purl.org/dc/elements/1.1/"
   xmlns:cc="http://creativecommons.org/ns#"
   xmlns:rdf="http://www.w3.org/1999/02/22-rdf-syntax-ns#"
   xmlns:svg="http://www.w3.org/2000/svg"
   xmlns="http://www.w3.org/2000/svg"
   xmlns:sodipodi="http://sodipodi.sourceforge.net/DTD/sodipodi-0.dtd"
   xmlns:inkscape="http://www.inkscape.org/namespaces/inkscape"
   version="1.1"
   id="Layer_1"
   x="0px"
   y="0px"
   viewBox="0 0 512 511.99899"
   xml:space="preserve"
   sodipodi:docname="illumination.svg"
   width="512"
   height="511.99899"
   inkscape:version="1.0.2 (e86c8708, 2021-01-15)"><metadata
   id="metadata225"><rdf:RDF><cc:Work
       rdf:about=""><dc:format>image/svg+xml</dc:format><dc:type
         rdf:resource="http://purl.org/dc/dcmitype/StillImage" /><dc:title></dc:title></cc:Work></rdf:RDF></metadata><defs
   id="defs223" /><sodipodi:namedview
   pagecolor="#ffffff"
   bordercolor="#666666"
   borderopacity="1"
   objecttolerance="10"
   gridtolerance="10"
   guidetolerance="10"
   inkscape:pageopacity="0"
   inkscape:pageshadow="2"
   inkscape:window-width="1920"
   inkscape:window-height="1103"
   id="namedview221"
   showgrid="false"
   fit-margin-top="0"
   fit-margin-left="0"
   fit-margin-right="0"
   fit-margin-bottom="0"
   inkscape:zoom="1.4355469"
   inkscape:cx="256"
   inkscape:cy="255.999"
   inkscape:window-x="0"
   inkscape:window-y="25"
   inkscape:window-maximized="1"
   inkscape:current-layer="Layer_1" />
<polygon
   style="fill:#ffdb2d"
   points="412.1,191.34 437.019,74.98 320.659,99.899 255.999,0.001 191.341,99.899 74.981,74.98 99.9,191.34 0,255.999 99.9,320.659 74.981,437.019 191.341,412.1 255.999,512 320.659,412.1 437.019,437.019 412.1,320.658 512,255.999 "
   id="polygon182"
   transform="translate(0,-0.001)" />
<polygon
   style="fill:#ff9900"
   points="437.019,74.98 320.658,99.899 256,0.001 256,511.999 320.659,412.1 437.019,437.019 412.1,320.658 512,255.999 412.1,191.34 "
   id="polygon184"
   transform="translate(0,-0.001)" />
<path
   style="fill:#ffffff"
   d="m 256,117.331 c -76.583,0 -138.667,62.083 -138.667,138.667 0,76.583 62.083,138.667 138.667,138.667 76.583,0 138.667,-62.083 138.667,-138.667 0,-76.582 -62.084,-138.667 -138.667,-138.667 z"
   id="path186" />
<path
   style="fill:#ffe981"
   d="m 256,394.666 c 76.583,0 138.667,-62.083 138.667,-138.667 0,-76.583 -62.083,-138.667 -138.667,-138.667 v 0"
   id="path188" />
<g
   id="g190"
   transform="translate(0,-0.001)">
</g>
<g
   id="g192"
   transform="translate(0,-0.001)">
</g>
<g
   id="g194"
   transform="translate(0,-0.001)">
</g>
<g
   id="g196"
   transform="translate(0,-0.001)">
</g>
<g
   id="g198"
   transform="translate(0,-0.001)">
</g>
<g
   id="g200"
   transform="translate(0,-0.001)">
</g>
<g
   id="g202"
   transform="translate(0,-0.001)">
</g>
<g
   id="g204"
   transform="translate(0,-0.001)">
</g>
<g
   id="g206"
   transform="translate(0,-0.001)">
</g>
<g
   id="g208"
   transform="translate(0,-0.001)">
</g>
<g
   id="g210"
   transform="translate(0,-0.001)">
</g>
<g
   id="g212"
   transform="translate(0,-0.001)">
</g>
<g
   id="g214"
   transform="translate(0,-0.001)">
</g>
<g
   id="g216"
   transform="translate(0,-0.001)">
</g>
<g
   id="g218"
   transform="translate(0,-0.001)">
</g>
</svg>
