<?xml version="1.0" encoding="UTF-8" standalone="no"?>
<svg
   xmlns:dc="http://purl.org/dc/elements/1.1/"
   xmlns:cc="http://creativecommons.org/ns#"
   xmlns:rdf="http://www.w3.org/1999/02/22-rdf-syntax-ns#"
   xmlns:svg="http://www.w3.org/2000/svg"
   xmlns="http://www.w3.org/2000/svg"
   xmlns:sodipodi="http://sodipodi.sourceforge.net/DTD/sodipodi-0.dtd"
   xmlns:inkscape="http://www.inkscape.org/namespaces/inkscape"
   width="459.03448"
   height="512"
   viewBox="0 0 46.62069 58"
   version="1.1"
   id="svg255"
   sodipodi:docname="pressure.svg"
   inkscape:version="1.0.2 (e86c8708, 2021-01-15)">
  <metadata
     id="metadata259">
    <rdf:RDF>
      <cc:Work
         rdf:about="">
        <dc:format>image/svg+xml</dc:format>
        <dc:type
           rdf:resource="http://purl.org/dc/dcmitype/StillImage" />
        <dc:title>029 - Pressure Gauge </dc:title>
      </cc:Work>
    </rdf:RDF>
  </metadata>
  <sodipodi:namedview
     pagecolor="#ffffff"
     bordercolor="#666666"
     borderopacity="1"
     objecttolerance="10"
     gridtolerance="10"
     guidetolerance="10"
     inkscape:pageopacity="0"
     inkscape:pageshadow="2"
     inkscape:window-width="1920"
     inkscape:window-height="1103"
     id="namedview257"
     showgrid="false"
     fit-margin-top="0"
     fit-margin-left="0"
     fit-margin-right="0"
     fit-margin-bottom="0"
     inkscape:zoom="1.4355469"
     inkscape:cx="229.51724"
     inkscape:cy="256"
     inkscape:window-x="0"
     inkscape:window-y="25"
     inkscape:window-maximized="1"
     inkscape:current-layer="svg255" />
  <!-- Generator: Sketch 50.2 (55047) - http://www.bohemiancoding.com/sketch -->
  <title
     id="title227">029 - Pressure Gauge </title>
  <desc
     id="desc229">Created with Sketch.</desc>
  <defs
     id="defs231" />
  <g
     id="Page-1"
     stroke="none"
     stroke-width="1"
     fill="none"
     fill-rule="evenodd"
     transform="translate(-3)">
    <g
       id="029---Pressure-Gauge-"
       fill-rule="nonzero">
      <path
         d="M 20,51.3 V 57 c 0,0.552285 -0.447715,1 -1,1 h -6 c -0.552285,0 -1,-0.447715 -1,-1 v -9.1"
         id="Shape"
         fill="#c03a2b" />
      <path
         d="M 40,47.9 V 57 c 0,0.552285 -0.447715,1 -1,1 h -6 c -0.552285,0 -1,-0.447715 -1,-1 v -5.7"
         id="path234"
         fill="#c03a2b" />
      <circle
         id="Oval"
         fill="#f29c1f"
         cx="26"
         cy="26"
         r="26" />
      <circle
         id="circle237"
         fill="#90bae1"
         cx="26"
         cy="26"
         r="22" />
      <circle
         id="circle239"
         fill="#b0d3f0"
         cx="26"
         cy="26"
         r="20" />
      <path
         d="M 18.02,34.98 15.2,37.8 c -0.387282,0.390503 -1.017218,0.394971 -1.41,0.01 C 7.3212483,31.153177 7.4059258,20.53283 13.98,13.98 l 4.24,4.24 c -4.226445,4.224844 -4.301965,11.052708 -0.17,15.37 0.366411,0.395636 0.353139,1.010541 -0.03,1.39 z"
         id="path241"
         fill="#24ae5f" />
      <path
         d="m 38.01,13.99 -4.23,4.23 c -4.299836,-4.28938 -11.260164,-4.28938 -15.56,0 L 13.98,13.98 C 17.165064,10.789402 21.4888,8.9973077 25.997075,8.9991838 30.50535,9.0010599 34.827593,10.796752 38.01,13.99 Z"
         id="path243"
         fill="#e57e25" />
      <path
         d="m 43,26 c 0.0032,4.390915 -1.70001,8.61125 -4.75,11.77 -0.18727,0.198104 -0.446171,0.312822 -0.718722,0.31846 C 37.258728,38.094099 36.995304,37.990189 36.8,37.8 l -2.82,-2.82 c -0.383475,-0.375362 -0.3968,-0.988327 -0.03,-1.38 2.424167,-2.53625 3.49715,-6.074494 2.89,-9.53 -0.383987,-2.221731 -1.454055,-4.267447 -3.06,-5.85 l 4.23,-4.23 C 41.205973,17.169316 43.001982,21.491975 43,26 Z"
         id="path245"
         fill="#c03a2b" />
      <path
         d="M 39,27 H 28 c -0.552285,0 -1,-0.447715 -1,-1 0,-0.552285 0.447715,-1 1,-1 h 11 c 0.552285,0 1,0.447715 1,1 0,0.552285 -0.447715,1 -1,1 z"
         id="path247"
         fill="#2c3e50" />
      <path
         d="m 24,27 h -4 c -0.552285,0 -1,-0.447715 -1,-1 0,-0.552285 0.447715,-1 1,-1 h 4 c 0.552285,0 1,0.447715 1,1 0,0.552285 -0.447715,1 -1,1 z"
         id="path249"
         fill="#2c3e50" />
      <circle
         id="circle251"
         fill="#4482c3"
         cx="26"
         cy="26"
         r="2" />
    </g>
  </g>
</svg>
