<?xml version="1.0" encoding="UTF-8" standalone="no"?>
<svg
   xmlns:dc="http://purl.org/dc/elements/1.1/"
   xmlns:cc="http://creativecommons.org/ns#"
   xmlns:rdf="http://www.w3.org/1999/02/22-rdf-syntax-ns#"
   xmlns:svg="http://www.w3.org/2000/svg"
   xmlns="http://www.w3.org/2000/svg"
   xmlns:sodipodi="http://sodipodi.sourceforge.net/DTD/sodipodi-0.dtd"
   xmlns:inkscape="http://www.inkscape.org/namespaces/inkscape"
   id="Capa_1"
   enable-background="new 0 0 512 512"
   height="512"
   viewBox="0 0 460.00049 512"
   width="460.00049"
   version="1.1"
   sodipodi:docname="temperature.svg"
   inkscape:version="1.0.2 (e86c8708, 2021-01-15)">
  <metadata
     id="metadata314">
    <rdf:RDF>
      <cc:Work
         rdf:about="">
        <dc:format>image/svg+xml</dc:format>
        <dc:type
           rdf:resource="http://purl.org/dc/dcmitype/StillImage" />
        <dc:title></dc:title>
      </cc:Work>
    </rdf:RDF>
  </metadata>
  <defs
     id="defs312" />
  <sodipodi:namedview
     pagecolor="#ffffff"
     bordercolor="#666666"
     borderopacity="1"
     objecttolerance="10"
     gridtolerance="10"
     guidetolerance="10"
     inkscape:pageopacity="0"
     inkscape:pageshadow="2"
     inkscape:window-width="1920"
     inkscape:window-height="1103"
     id="namedview310"
     showgrid="false"
     fit-margin-top="0"
     fit-margin-left="0"
     fit-margin-right="0"
     fit-margin-bottom="0"
     inkscape:zoom="1.4355469"
     inkscape:cx="230.0005"
     inkscape:cy="256"
     inkscape:window-x="0"
     inkscape:window-y="25"
     inkscape:window-maximized="1"
     inkscape:current-layer="Capa_1" />
  <g
     id="g307"
     transform="translate(-25.9995)">
    <g
       id="g295">
      <g
         id="g293">
        <g
           id="g291">
          <g
             fill="#453d81"
             id="g271">
            <path
               d="m 471,90 h -30 c -8.284,0 -15,-6.716 -15,-15 0,-8.284 6.716,-15 15,-15 h 30 c 8.284,0 15,6.716 15,15 0,8.284 -6.716,15 -15,15 z"
               id="path261" />
            <path
               d="m 456,150 h -15 c -8.284,0 -15,-6.716 -15,-15 0,-8.284 6.716,-15 15,-15 h 15 c 8.284,0 15,6.716 15,15 0,8.284 -6.716,15 -15,15 z"
               id="path263" />
            <path
               d="m 471,210 h -30 c -8.284,0 -15,-6.716 -15,-15 0,-8.284 6.716,-15 15,-15 h 30 c 8.284,0 15,6.716 15,15 0,8.284 -6.716,15 -15,15 z"
               id="path265" />
            <path
               d="m 456,270 h -15 c -8.284,0 -15,-6.716 -15,-15 0,-8.284 6.716,-15 15,-15 h 15 c 8.284,0 15,6.716 15,15 0,8.284 -6.716,15 -15,15 z"
               id="path267" />
            <path
               d="m 471,330 h -30 c -8.284,0 -15,-6.716 -15,-15 0,-8.284 6.716,-15 15,-15 h 30 c 8.284,0 15,6.716 15,15 0,8.284 -6.716,15 -15,15 z"
               id="path269" />
          </g>
          <g
             id="g289">
            <path
               d="m 216,407 c 0,57.99 47.01,105 105,105 57.99,0 105,-47.01 105,-105 0,-33.445 -15.638,-63.236 -40,-82.465 V 65 C 386,29.102 356.899,0 321,0 285.102,0 256,29.101 256,65 V 324.536 C 231.638,343.764 216,373.555 216,407 Z"
               fill="#e2dff4"
               id="path273" />
            <path
               d="m 426,407 c 0,-33.445 -15.638,-63.236 -40,-82.465 V 65 C 386,29.102 356.899,0 321,0 v 512 c 57.99,0 105,-47.01 105,-105 z"
               fill="#bebcdd"
               id="path275" />
            <path
               d="m 321,482 c -41.355,0 -75,-33.645 -75,-75 0,-23.103 10.419,-44.577 28.586,-58.916 L 286,339.076 V 65 c 0,-19.299 15.701,-35 35,-35 19.299,0 35,15.701 35,35 v 274.076 l 11.414,9.008 C 385.581,362.423 396,383.897 396,407 c 0,41.355 -33.645,75 -75,75 z"
               fill="#f9f9f9"
               id="path277" />
            <path
               d="m 321,482 c 41.355,0 75,-33.645 75,-75 0,-23.103 -10.419,-44.577 -28.586,-58.916 L 356,339.076 V 65 C 356,45.701 340.299,30 321,30 Z"
               fill="#e2dff4"
               id="path279" />
            <g
               id="g287">
              <path
                 d="M 336,364.58 V 195 c 0,-8.284 -6.716,-15 -15,-15 -8.284,0 -15,6.716 -15,15 v 169.58 c -17.459,6.192 -30,22.865 -30,42.42 0,24.813 20.187,45 45,45 24.813,0 45,-20.187 45,-45 0,-19.555 -12.541,-36.228 -30,-42.42 z"
                 fill="#ff7d47"
                 id="path281" />
              <g
                 id="g285">
                <path
                   d="M 336,364.58 V 195 c 0,-8.284 -6.716,-15 -15,-15 v 272 c 24.813,0 45,-20.187 45,-45 0,-19.555 -12.541,-36.228 -30,-42.42 z"
                   fill="#ff405c"
                   id="path283" />
              </g>
            </g>
          </g>
        </g>
      </g>
    </g>
    <g
       id="g301">
      <path
         d="M 96,255 V 111.213 l 14.393,14.393 c 5.858,5.858 15.355,5.858 21.213,0 5.858,-5.858 5.858,-15.355 0,-21.213 l -40,-40 c -5.858,-5.858 -15.355,-5.858 -21.213,0 l -40,40 c -5.858,5.858 -5.858,15.355 0,21.213 5.858,5.858 15.355,5.858 21.213,0 L 66,111.213 V 255 c 0,8.284 6.716,15 15,15 8.284,0 15,-6.716 15,-15 z"
         fill="#ff7d47"
         id="path297" />
      <path
         d="m 191.607,324.393 c -5.858,-5.858 -15.355,-5.858 -21.213,0 L 156,338.787 V 195 c 0,-8.284 -6.716,-15 -15,-15 -8.284,0 -15,6.716 -15,15 v 143.787 l -14.393,-14.393 c -5.858,-5.858 -15.355,-5.858 -21.213,0 -5.858,5.858 -5.858,15.355 0,21.213 l 40,40 c 5.858,5.858 15.355,5.858 21.213,0 l 40,-40 c 5.857,-5.858 5.857,-15.356 0,-21.214 z"
         fill="#8bb9ff"
         id="path299" />
    </g>
    <path
       d="m 131.606,104.394 -40,-40 C 88.678,61.464 84.839,60 81,60 v 210 c 8.284,0 15,-6.716 15,-15 V 111.213 l 14.393,14.393 c 5.858,5.858 15.355,5.858 21.213,0 5.858,-5.857 5.858,-15.355 0,-21.212 z"
       fill="#ff405c"
       id="path303" />
    <path
       d="m 191.606,345.606 -40,40 C 148.678,388.536 144.839,390 141,390 V 180 c 8.284,0 15,6.716 15,15 v 143.787 l 14.393,-14.393 c 5.858,-5.858 15.355,-5.858 21.213,0 5.858,5.857 5.858,15.355 0,21.212 z"
       fill="#7d81e7"
       id="path305" />
  </g>
</svg>
